<svg id="eeJEgrjG1UA1" xmlns="http://www.w3.org/2000/svg" xmlns:xlink="http://www.w3.org/1999/xlink" viewBox="0 0 68.1 68.1" shape-rendering="geometricPrecision" text-rendering="geometricPrecision"><style><![CDATA[#eeJEgrjG1UA4 {animation: eeJEgrjG1UA4_c_o 2000ms linear infinite normal forwards}@keyframes eeJEgrjG1UA4_c_o { 0% {opacity: 0} 10% {opacity: 0} 40% {opacity: 1} 70% {opacity: 1} 100% {opacity: 0}} #eeJEgrjG1UA5 {animation: eeJEgrjG1UA5_c_o 2000ms linear infinite normal forwards}@keyframes eeJEgrjG1UA5_c_o { 0% {opacity: 1} 20% {opacity: 1} 45% {opacity: 0} 70% {opacity: 0} 95% {opacity: 1} 100% {opacity: 1}} #eeJEgrjG1UA6 {animation: eeJEgrjG1UA6_c_o 2000ms linear infinite normal forwards}@keyframes eeJEgrjG1UA6_c_o { 0% {opacity: 0.4} 10% {opacity: 0} 25% {opacity: 0} 50% {opacity: 1} 85% {opacity: 1} 100% {opacity: 0.4}}]]></style><g><g><path id="eeJEgrjG1UA4" d="M23.4,0c0,18-9.7,34-23.4,34c13.7,0,23.4,16.1,23.4,34c0-18,9.7-34,23.4-34C33.1,34,23.4,18,23.4,0Z" opacity="0" fill="#ffd113"/><path id="eeJEgrjG1UA5" d="M56.4,0c0,9-4.9,17-11.7,17c6.8,0,11.7,8,11.7,17c0-9,4.9-17,11.7-17-6.9,0-11.7-8-11.7-17Z" fill="#ffd113"/><path id="eeJEgrjG1UA6" d="M51,34c0,9-4.9,17-11.7,17C46.1,51,51,59,51,68c0-9,4.9-17,11.7-17C55.9,51,51,43,51,34Z" opacity="0.4" fill="#ffd113"/></g></g></svg>